<?xml version="1.0" encoding="utf-8"?>
<svg version="1.1" xmlns:xlink="http://www.w3.org/1999/xlink" width="34px" height="35px" xmlns="http://www.w3.org/2000/svg">
  <g transform="matrix(1 0 0 1 -191 -300 )">
    <path d="M 191 300  L 225 300  L 225 335  L 191 335  L 191 300  " fill-rule="nonzero" fill="#cccccc" stroke="none" />
    <path d="M 193 302  L 223 302  L 223 333  L 193 333  L 193 302  " fill-rule="nonzero" fill="#ffffff" stroke="none" />
    <path d="M 211.23 310.35  C 209.802 310.35  208.68 309.228  208.68 307.8  C 208.68 306.372  209.802 305.25  211.23 305.25  C 212.658 305.25  213.78 306.372  213.78 307.8  C 213.78 309.228  212.658 310.35  211.23 310.35  " fill-rule="nonzero" fill="#cccccc" stroke="none" />
    <path d="M 194 332  L 194 316.05  L 201 308.8  L 210.8 314.6  L 216.4 313.15  L 222 314.6  L 222 332  L 194 332  " fill-rule="nonzero" fill="#169bd5" stroke="none" />
  </g>
</svg>