<?xml version="1.0" encoding="utf-8"?>
<svg version="1.1" xmlns:xlink="http://www.w3.org/1999/xlink" width="20px" height="20px" xmlns="http://www.w3.org/2000/svg">
  <g transform="matrix(1 0 0 1 -454 -79 )">
    <path d="M 19.8671875 14.4596354166667  C 19.9557291666667 15.1150173611111  20 15.8116319444444  20 16.5494791666667  C 20 17.4956597222222  19.6744791666667 18.3072916666667  19.0234375 18.984375  C 18.3723958333333 19.6614583333333  17.5885416666667 20  16.671875 20  L 3.328125 20  C 2.41145833333333 20  1.62760416666667 19.6614583333333  0.9765625 18.984375  C 0.325520833333333 18.3072916666667  0 17.4956597222222  0 16.5494791666667  C 0 15.8116319444444  0.0442708333333334 15.1150173611111  0.1328125 14.4596354166667  C 0.221354166666667 13.8042534722222  0.385416666666667 13.14453125  0.625 12.48046875  C 0.864583333333334 11.81640625  1.16927083333333 11.2478298611111  1.5390625 10.7747395833333  C 1.90885416666667 10.3016493055556  2.3984375 9.91536458333333  3.0078125 9.61588541666667  C 3.6171875 9.31640625  4.31770833333333 9.16666666666667  5.109375 9.16666666666667  C 6.47395833333333 10.2777777777778  8.10416666666667 10.8333333333333  10 10.8333333333333  C 11.8958333333333 10.8333333333333  13.5260416666667 10.2777777777778  14.890625 9.16666666666667  C 15.6822916666667 9.16666666666667  16.3828125 9.31640625  16.9921875 9.61588541666667  C 17.6015625 9.91536458333333  18.0911458333333 10.3016493055556  18.4609375 10.7747395833333  C 18.8307291666667 11.2478298611111  19.1354166666667 11.81640625  19.375 12.48046875  C 19.6145833333333 13.14453125  19.7786458333333 13.8042534722222  19.8671875 14.4596354166667  Z M 14.2421875 1.46484375  C 15.4140625 2.44140625  16 3.61979166666667  16 5  C 16 6.38020833333333  15.4140625 7.55859375  14.2421875 8.53515625  C 13.0703125 9.51171875  11.65625 10  10 10  C 8.34375 10  6.9296875 9.51171875  5.7578125 8.53515625  C 4.5859375 7.55859375  4 6.38020833333333  4 5  C 4 3.61979166666667  4.5859375 2.44140625  5.7578125 1.46484375  C 6.9296875 0.48828125  8.34375 0  10 0  C 11.65625 0  13.0703125 0.48828125  14.2421875 1.46484375  Z " fill-rule="nonzero" fill="#000000" stroke="none" transform="matrix(1 0 0 1 454 79 )" />
  </g>
</svg>