<?xml version="1.0" standalone="no"?><!DOCTYPE svg PUBLIC "-//W3C//DTD SVG 1.1//EN" "http://www.w3.org/Graphics/SVG/1.1/DTD/svg11.dtd"><svg t="1668493830448" class="icon" viewBox="0 0 1024 1024" version="1.1" xmlns="http://www.w3.org/2000/svg" p-id="5421" xmlns:xlink="http://www.w3.org/1999/xlink" width="128" height="128"><path d="M160 480a32 32 0 0 1 31.776 28.256L192 512v353.024a32 32 0 0 1-63.776 3.744L128 865.024V512a32 32 0 0 1 32-32z m234.656-352.8a32 32 0 0 1 31.808 28.256l0.192 3.744V864.32a32 32 0 0 1-63.776 3.712l-0.224-3.712V159.2a32 32 0 0 1 32-32z m234.688 271.168a32 32 0 0 1 31.776 28.256l0.224 3.744v433.984a32 32 0 0 1-63.808 3.712l-0.192-3.712V430.368a32 32 0 0 1 32-32zM864 278.144a32 32 0 0 1 31.776 28.288l0.224 3.712v554.208a32 32 0 0 1-63.776 3.712L832 864.352V310.144a32 32 0 0 1 32-32z" p-id="5422" fill="#d81e06"></path></svg>