<?xml version="1.0" encoding="utf-8"?>
<svg version="1.1" xmlns:xlink="http://www.w3.org/1999/xlink" width="75px" height="75px" xmlns="http://www.w3.org/2000/svg">
  <g transform="matrix(1 0 0 1 -418 -213 )">
    <path d="M 418 213  L 493 213  L 493 288  L 418 288  L 418 213  " fill-rule="nonzero" fill="#cccccc" stroke="none" />
    <path d="M 423 218  L 488 218  L 488 283  L 423 283  L 423 218  " fill-rule="nonzero" fill="#ffffff" stroke="none" />
    <path d="M 462.625 235.5  C 459.475 235.5  457 233.025  457 229.875  C 457 226.725  459.475 224.25  462.625 224.25  C 465.775 224.25  468.25 226.725  468.25 229.875  C 468.25 233.025  465.775 235.5  462.625 235.5  " fill-rule="nonzero" fill="#cccccc" stroke="none" />
    <path d="M 425 281  L 425 247.45  L 440.25 232.2  L 461.6 244.4  L 473.8 241.35  L 486 244.4  L 486 281  L 425 281  " fill-rule="nonzero" fill="#169bd5" stroke="none" />
  </g>
</svg>