<?xml version="1.0" standalone="no"?><!DOCTYPE svg PUBLIC "-//W3C//DTD SVG 1.1//EN" "http://www.w3.org/Graphics/SVG/1.1/DTD/svg11.dtd"><svg t="1668566305204" class="icon" viewBox="0 0 1024 1024" version="1.1" xmlns="http://www.w3.org/2000/svg" p-id="10452" xmlns:xlink="http://www.w3.org/1999/xlink" width="128" height="128"><path d="M313.856 884.736H189.952c-22.016 0-40.448-17.92-40.448-40.448V599.04c0-22.016 17.92-40.448 40.448-40.448h123.904c22.016 0 40.448 17.92 40.448 40.448v245.248c0 22.528-17.92 40.448-40.448 40.448z m-111.616-52.224H302.08v-220.672H202.24v220.672zM822.272 884.736h-123.904c-22.016 0-40.448-17.92-40.448-40.448V599.04c0-22.016 17.92-40.448 40.448-40.448h123.904c22.016 0 40.448 17.92 40.448 40.448v245.248c0 22.528-17.92 40.448-40.448 40.448z m-111.616-52.224h99.84v-220.672h-99.84v220.672z" fill="#8a8a8a" p-id="10453"></path><path d="M862.72 751.616h-52.224V497.152c0-167.424-136.192-304.128-304.128-304.128S202.24 329.728 202.24 497.152v254.464H150.016V497.152c0-196.608 159.744-356.352 356.352-356.352s356.352 159.744 356.352 356.352v254.464z" fill="#8a8a8a" p-id="10454"></path></svg>