<?xml version="1.0" encoding="utf-8"?>
<svg version="1.1" xmlns:xlink="http://www.w3.org/1999/xlink" width="41px" height="17px" xmlns="http://www.w3.org/2000/svg">
  <defs>
    <mask fill="white" id="clip209">
      <path d="M 9.98717948717945 17  C 4.39435897435897 17  0 13.26  0 8.5  C 0 3.74000000000001  4.39435897435897 0  9.98717948717945 0  L 21.376068376067 0  L 23.0519480519465 0  L 27.7272727272728 0  L 31.0128205128206 0  C 36.605641025641 0  41 3.74000000000001  41 8.5  C 41 13.26  36.605641025641 17  31.0128205128206 17  L 9.98717948717945 17  Z " fill-rule="evenodd" />
    </mask>
  </defs>
  <g transform="matrix(1 0 0 1 -1075 -213 )">
    <path d="M 9.98717948717945 17  C 4.39435897435897 17  0 13.26  0 8.5  C 0 3.74000000000001  4.39435897435897 0  9.98717948717945 0  L 21.376068376067 0  L 23.0519480519465 0  L 27.7272727272728 0  L 31.0128205128206 0  C 36.605641025641 0  41 3.74000000000001  41 8.5  C 41 13.26  36.605641025641 17  31.0128205128206 17  L 9.98717948717945 17  Z " fill-rule="nonzero" fill="#ffffff" stroke="none" transform="matrix(1 0 0 1 1075 213 )" />
    <path d="M 9.98717948717945 17  C 4.39435897435897 17  0 13.26  0 8.5  C 0 3.74000000000001  4.39435897435897 0  9.98717948717945 0  L 21.376068376067 0  L 23.0519480519465 0  L 27.7272727272728 0  L 31.0128205128206 0  C 36.605641025641 0  41 3.74000000000001  41 8.5  C 41 13.26  36.605641025641 17  31.0128205128206 17  L 9.98717948717945 17  Z " stroke-width="2" stroke="#797979" fill="none" transform="matrix(1 0 0 1 1075 213 )" mask="url(#clip209)" />
  </g>
</svg>