<?xml version="1.0" encoding="utf-8"?>
<svg version="1.1" xmlns:xlink="http://www.w3.org/1999/xlink" width="28px" height="16px" xmlns="http://www.w3.org/2000/svg">
  <g transform="matrix(1 0 0 1 -312 -221 )">
    <path d="M 3.859375 13.4270833333333  C 3.953125 13.4895833333333  4 13.5694444444444  4 13.6666666666667  L 4 15.6666666666667  C 4 15.7638888888889  3.953125 15.84375  3.859375 15.90625  C 3.765625 15.96875  3.64583333333333 16  3.5 16  L 0.5 16  C 0.354166666666667 16  0.234375 15.96875  0.140625 15.90625  C 0.046875 15.84375  0 15.7638888888889  0 15.6666666666667  L 0 13.6666666666667  C 0 13.5694444444444  0.046875 13.4895833333333  0.140625 13.4270833333333  C 0.234375 13.3645833333333  0.354166666666667 13.3333333333333  0.5 13.3333333333333  L 3.5 13.3333333333333  C 3.64583333333333 13.3333333333333  3.765625 13.3645833333333  3.859375 13.4270833333333  Z M 9.859375 12.09375  C 9.953125 12.15625  10 12.2361111111111  10 12.3333333333333  L 10 15.6666666666667  C 10 15.7638888888889  9.953125 15.84375  9.859375 15.90625  C 9.765625 15.96875  9.64583333333333 16  9.5 16  L 6.5 16  C 6.35416666666667 16  6.234375 15.96875  6.140625 15.90625  C 6.046875 15.84375  6 15.7638888888889  6 15.6666666666667  L 6 12.3333333333333  C 6 12.2361111111111  6.046875 12.15625  6.140625 12.09375  C 6.234375 12.03125  6.35416666666667 12  6.5 12  L 9.5 12  C 9.64583333333333 12  9.765625 12.03125  9.859375 12.09375  Z M 15.859375 9.42708333333333  C 15.953125 9.48958333333333  16 9.56944444444444  16 9.66666666666667  L 16 15.6666666666667  C 16 15.7638888888889  15.953125 15.84375  15.859375 15.90625  C 15.765625 15.96875  15.6458333333333 16  15.5 16  L 12.5 16  C 12.3541666666667 16  12.234375 15.96875  12.140625 15.90625  C 12.046875 15.84375  12 15.7638888888889  12 15.6666666666667  L 12 9.66666666666667  C 12 9.56944444444444  12.046875 9.48958333333333  12.140625 9.42708333333333  C 12.234375 9.36458333333333  12.3541666666667 9.33333333333333  12.5 9.33333333333333  L 15.5 9.33333333333333  C 15.6458333333333 9.33333333333333  15.765625 9.36458333333333  15.859375 9.42708333333333  Z M 21.859375 5.42708333333333  C 21.953125 5.48958333333333  22 5.56944444444444  22 5.66666666666667  L 22 15.6666666666667  C 22 15.7638888888889  21.953125 15.84375  21.859375 15.90625  C 21.765625 15.96875  21.6458333333333 16  21.5 16  L 18.5 16  C 18.3541666666667 16  18.234375 15.96875  18.140625 15.90625  C 18.046875 15.84375  18 15.7638888888889  18 15.6666666666667  L 18 5.66666666666667  C 18 5.56944444444444  18.046875 5.48958333333333  18.140625 5.42708333333333  C 18.234375 5.36458333333333  18.3541666666667 5.33333333333333  18.5 5.33333333333333  L 21.5 5.33333333333333  C 21.6458333333333 5.33333333333333  21.765625 5.36458333333333  21.859375 5.42708333333333  Z M 27.859375 0.09375  C 27.953125 0.15625  28 0.236111111111109  28 0.333333333333334  L 28 15.6666666666667  C 28 15.7638888888889  27.953125 15.84375  27.859375 15.90625  C 27.765625 15.96875  27.6458333333333 16  27.5 16  L 24.5 16  C 24.3541666666667 16  24.234375 15.96875  24.140625 15.90625  C 24.046875 15.84375  24 15.7638888888889  24 15.6666666666667  L 24 0.333333333333334  C 24 0.236111111111109  24.046875 0.15625  24.140625 0.09375  C 24.234375 0.03125  24.3541666666667 0  24.5 0  L 27.5 0  C 27.6458333333333 0  27.765625 0.03125  27.859375 0.09375  Z " fill-rule="nonzero" fill="#000000" stroke="none" transform="matrix(1 0 0 1 312 221 )" />
  </g>
</svg>