<?xml version="1.0" encoding="utf-8"?>
<svg version="1.1" xmlns:xlink="http://www.w3.org/1999/xlink" width="42px" height="38px" xmlns="http://www.w3.org/2000/svg">
  <g transform="matrix(1 0 0 1 -59 -158 )">
    <path d="M 59 158  L 101 158  L 101 196  L 59 196  L 59 158  " fill-rule="nonzero" fill="#cccccc" stroke="none" />
    <path d="M 62 161  L 98 161  L 98 193  L 62 193  L 62 161  " fill-rule="nonzero" fill="#ffffff" stroke="none" />
    <path d="M 83.69 169.4  C 82.094 169.4  80.84 168.146  80.84 166.55  C 80.84 164.954  82.094 163.7  83.69 163.7  C 85.286 163.7  86.54 164.954  86.54 166.55  C 86.54 168.146  85.286 169.4  83.69 169.4  " fill-rule="nonzero" fill="#cccccc" stroke="none" />
    <path d="M 63 192  L 63 175.5  L 71.5 168  L 83.4 175.714285714286  L 90.2 172.5  L 97 175.714285714286  L 97 192  L 63 192  " fill-rule="nonzero" fill="#169bd5" stroke="none" />
  </g>
</svg>