<?xml version="1.0" encoding="utf-8"?>
<svg version="1.1" xmlns:xlink="http://www.w3.org/1999/xlink" width="102px" height="26px" xmlns="http://www.w3.org/2000/svg">
  <defs>
    <mask fill="white" id="clip222">
      <path d="M 0 21  L 0 5  C 0 2.19999999999982  2.20000000000005 0  5 0  L 54.3333333333321 0  L 97 0  C 99.8 0  102 2.19999999999982  102 5  L 102 21  C 102 23.8000000000002  99.8 26  97 26  L 5 26  C 2.20000000000005 26  0 23.8000000000002  0 21  Z " fill-rule="evenodd" />
    </mask>
  </defs>
  <g transform="matrix(1 0 0 1 -363 -543 )">
    <path d="M 0 21  L 0 5  C 0 2.19999999999982  2.20000000000005 0  5 0  L 54.3333333333321 0  L 97 0  C 99.8 0  102 2.19999999999982  102 5  L 102 21  C 102 23.8000000000002  99.8 26  97 26  L 5 26  C 2.20000000000005 26  0 23.8000000000002  0 21  Z " fill-rule="nonzero" fill="#ffffff" stroke="none" transform="matrix(1 0 0 1 363 543 )" />
    <path d="M 0 21  L 0 5  C 0 2.19999999999982  2.20000000000005 0  5 0  L 54.3333333333321 0  L 97 0  C 99.8 0  102 2.19999999999982  102 5  L 102 21  C 102 23.8000000000002  99.8 26  97 26  L 5 26  C 2.20000000000005 26  0 23.8000000000002  0 21  Z " stroke-width="2" stroke="#797979" fill="none" transform="matrix(1 0 0 1 363 543 )" mask="url(#clip222)" />
  </g>
</svg>