<?xml version="1.0" encoding="utf-8"?>
<svg version="1.1" xmlns:xlink="http://www.w3.org/1999/xlink" width="18px" height="20px" xmlns="http://www.w3.org/2000/svg">
  <g transform="matrix(1 0 0 1 -60 -471 )">
    <path d="M 13.546875 0.758928571428572  L 17.203125 4.24107142857143  C 17.421875 4.44940476190476  17.609375 4.73214285714286  17.765625 5.08928571428571  C 17.921875 5.44642857142857  18 5.77380952380952  18 6.07142857142857  L 18 18.9285714285714  C 18 19.2261904761905  17.890625 19.4791666666667  17.671875 19.6875  C 17.453125 19.8958333333333  17.1875 20  16.875 20  L 1.125 20  C 0.8125 20  0.546875 19.8958333333333  0.328125 19.6875  C 0.109375 19.4791666666667  0 19.2261904761905  0 18.9285714285714  L 0 1.07142857142857  C 0 0.773809523809523  0.109375 0.520833333333333  0.328125 0.3125  C 0.546875 0.104166666666667  0.8125 0  1.125 0  L 11.625 0  C 11.9375 0  12.28125 0.0744047619047628  12.65625 0.223214285714286  C 13.03125 0.372023809523809  13.328125 0.550595238095237  13.546875 0.758928571428572  Z M 12.48046875 1.76339285714286  C 12.38671875 1.67410714285714  12.2265625 1.5922619047619  12 1.51785714285714  L 12 5.71428571428571  L 16.40625 5.71428571428571  C 16.328125 5.4985119047619  16.2421875 5.34598214285714  16.1484375 5.25669642857143  L 12.48046875 1.76339285714286  Z M 1.5 18.5714285714286  L 16.5 18.5714285714286  L 16.5 7.14285714285714  L 11.625 7.14285714285714  C 11.3125 7.14285714285714  11.046875 7.03869047619047  10.828125 6.83035714285714  C 10.609375 6.62202380952381  10.5 6.36904761904762  10.5 6.07142857142857  L 10.5 1.42857142857143  L 1.5 1.42857142857143  L 1.5 18.5714285714286  Z M 4.5 9.64285714285714  L 4.5 8.92857142857143  C 4.5 8.82440476190476  4.53515625 8.73883928571429  4.60546875 8.671875  C 4.67578125 8.60491071428571  4.765625 8.57142857142857  4.875 8.57142857142857  L 13.125 8.57142857142857  C 13.234375 8.57142857142857  13.32421875 8.60491071428571  13.39453125 8.671875  C 13.46484375 8.73883928571429  13.5 8.82440476190476  13.5 8.92857142857143  L 13.5 9.64285714285714  C 13.5 9.74702380952381  13.46484375 9.83258928571429  13.39453125 9.89955357142857  C 13.32421875 9.96651785714286  13.234375 10  13.125 10  L 4.875 10  C 4.765625 10  4.67578125 9.96651785714286  4.60546875 9.89955357142857  C 4.53515625 9.83258928571429  4.5 9.74702380952381  4.5 9.64285714285714  Z M 4.875 11.4285714285714  L 13.125 11.4285714285714  C 13.234375 11.4285714285714  13.32421875 11.4620535714286  13.39453125 11.5290178571429  C 13.46484375 11.5959821428571  13.5 11.6815476190476  13.5 11.7857142857143  L 13.5 12.5  C 13.5 12.6041666666667  13.46484375 12.6897321428571  13.39453125 12.7566964285714  C 13.32421875 12.8236607142857  13.234375 12.8571428571429  13.125 12.8571428571429  L 4.875 12.8571428571429  C 4.765625 12.8571428571429  4.67578125 12.8236607142857  4.60546875 12.7566964285714  C 4.53515625 12.6897321428571  4.5 12.6041666666667  4.5 12.5  L 4.5 11.7857142857143  C 4.5 11.6815476190476  4.53515625 11.5959821428571  4.60546875 11.5290178571429  C 4.67578125 11.4620535714286  4.765625 11.4285714285714  4.875 11.4285714285714  Z M 4.875 14.2857142857143  L 13.125 14.2857142857143  C 13.234375 14.2857142857143  13.32421875 14.3191964285714  13.39453125 14.3861607142857  C 13.46484375 14.453125  13.5 14.5386904761905  13.5 14.6428571428571  L 13.5 15.3571428571429  C 13.5 15.4613095238095  13.46484375 15.546875  13.39453125 15.6138392857143  C 13.32421875 15.6808035714286  13.234375 15.7142857142857  13.125 15.7142857142857  L 4.875 15.7142857142857  C 4.765625 15.7142857142857  4.67578125 15.6808035714286  4.60546875 15.6138392857143  C 4.53515625 15.546875  4.5 15.4613095238095  4.5 15.3571428571429  L 4.5 14.6428571428571  C 4.5 14.5386904761905  4.53515625 14.453125  4.60546875 14.3861607142857  C 4.67578125 14.3191964285714  4.765625 14.2857142857143  4.875 14.2857142857143  Z " fill-rule="nonzero" fill="#000000" stroke="none" transform="matrix(1 0 0 1 60 471 )" />
  </g>
</svg>