<?xml version="1.0" encoding="utf-8"?>
<svg version="1.1" xmlns:xlink="http://www.w3.org/1999/xlink" width="15px" height="15px" xmlns="http://www.w3.org/2000/svg">
  <g transform="matrix(1 0 0 1 -560 -215 )">
    <path d="M 5.35866477272727 5.712890625  C 5.42258522727273 5.771484375  5.45454545454546 5.84635416666667  5.45454545454546 5.9375  L 5.45454545454546 11.5625  C 5.45454545454546 11.6536458333333  5.42258522727273 11.728515625  5.35866477272727 11.787109375  C 5.29474431818182 11.845703125  5.21306818181818 11.875  5.11363636363636 11.875  L 4.43181818181818 11.875  C 4.33238636363636 11.875  4.25071022727273 11.845703125  4.18678977272727 11.787109375  C 4.12286931818182 11.728515625  4.09090909090909 11.6536458333333  4.09090909090909 11.5625  L 4.09090909090909 5.9375  C 4.09090909090909 5.84635416666667  4.12286931818182 5.771484375  4.18678977272727 5.712890625  C 4.25071022727273 5.654296875  4.33238636363636 5.625  4.43181818181818 5.625  L 5.11363636363636 5.625  C 5.21306818181818 5.625  5.29474431818182 5.654296875  5.35866477272727 5.712890625  Z M 8.0859375 5.712890625  C 8.14985795454546 5.771484375  8.18181818181818 5.84635416666667  8.18181818181818 5.9375  L 8.18181818181818 11.5625  C 8.18181818181818 11.6536458333333  8.14985795454546 11.728515625  8.0859375 11.787109375  C 8.02201704545455 11.845703125  7.94034090909091 11.875  7.84090909090909 11.875  L 7.15909090909091 11.875  C 7.05965909090909 11.875  6.97798295454546 11.845703125  6.9140625 11.787109375  C 6.85014204545455 11.728515625  6.81818181818182 11.6536458333333  6.81818181818182 11.5625  L 6.81818181818182 5.9375  C 6.81818181818182 5.84635416666667  6.85014204545455 5.771484375  6.9140625 5.712890625  C 6.97798295454546 5.654296875  7.05965909090909 5.625  7.15909090909091 5.625  L 7.84090909090909 5.625  C 7.94034090909091 5.625  8.02201704545455 5.654296875  8.0859375 5.712890625  Z M 10.8132102272727 5.712890625  C 10.8771306818182 5.771484375  10.9090909090909 5.84635416666667  10.9090909090909 5.9375  L 10.9090909090909 11.5625  C 10.9090909090909 11.6536458333333  10.8771306818182 11.728515625  10.8132102272727 11.787109375  C 10.7492897727273 11.845703125  10.6676136363636 11.875  10.5681818181818 11.875  L 9.88636363636364 11.875  C 9.78693181818182 11.875  9.70525568181818 11.845703125  9.64133522727273 11.787109375  C 9.57741477272727 11.728515625  9.54545454545455 11.6536458333333  9.54545454545455 11.5625  L 9.54545454545455 5.9375  C 9.54545454545455 5.84635416666667  9.57741477272727 5.771484375  9.64133522727273 5.712890625  C 9.70525568181818 5.654296875  9.78693181818182 5.625  9.88636363636364 5.625  L 10.5681818181818 5.625  C 10.6676136363636 5.625  10.7492897727273 5.654296875  10.8132102272727 5.712890625  Z M 12.1981534090909 13.4033203125  C 12.2478693181818 13.2828776041667  12.2727272727273 13.1510416666667  12.2727272727273 13.0078125  L 12.2727272727273 3.75  L 2.72727272727273 3.75  L 2.72727272727273 13.0078125  C 2.72727272727273 13.1510416666667  2.75213068181818 13.2828776041667  2.80184659090909 13.4033203125  C 2.8515625 13.5237630208333  2.90305397727273 13.6116536458333  2.95632102272727 13.6669921875  C 3.00958806818182 13.7223307291667  3.046875 13.75  3.06818181818182 13.75  L 11.9318181818182 13.75  C 11.953125 13.75  11.9904119318182 13.7223307291667  12.0436789772727 13.6669921875  C 12.0969460227273 13.6116536458333  12.1484375 13.5237630208333  12.1981534090909 13.4033203125  Z M 5.63565340909091 1.357421875  L 5.11363636363636 2.5  L 9.88636363636364 2.5  L 9.375 1.357421875  C 9.32528409090909 1.298828125  9.26491477272727 1.26302083333333  9.19389204545455 1.25  L 5.81676136363636 1.25  C 5.74573863636364 1.26302083333333  5.68536931818182 1.298828125  5.63565340909091 1.357421875  Z M 14.9041193181818 2.587890625  C 14.9680397727273 2.646484375  15 2.72135416666667  15 2.8125  L 15 3.4375  C 15 3.52864583333333  14.9680397727273 3.603515625  14.9041193181818 3.662109375  C 14.8401988636364 3.720703125  14.7585227272727 3.75  14.6590909090909 3.75  L 13.6363636363636 3.75  L 13.6363636363636 13.0078125  C 13.6363636363636 13.5481770833333  13.4694602272727 14.0152994791667  13.1356534090909 14.4091796875  C 12.8018465909091 14.8030598958333  12.4005681818182 15  11.9318181818182 15  L 3.06818181818182 15  C 2.59943181818182 15  2.19815340909091 14.8095703125  1.86434659090909 14.4287109375  C 1.53053977272727 14.0478515625  1.36363636363636 13.5872395833333  1.36363636363636 13.046875  L 1.36363636363636 3.75  L 0.340909090909091 3.75  C 0.241477272727273 3.75  0.159801136363636 3.720703125  0.0958806818181818 3.662109375  C 0.0319602272727273 3.603515625  0 3.52864583333333  0 3.4375  L 0 2.8125  C 0 2.72135416666667  0.0319602272727273 2.646484375  0.0958806818181818 2.587890625  C 0.159801136363636 2.529296875  0.241477272727273 2.5  0.340909090909091 2.5  L 3.6328125 2.5  L 4.37855113636364 0.869140625000001  C 4.48508522727273 0.628255208333332  4.67684659090909 0.423177083333332  4.95383522727273 0.253906250000001  C 5.23082386363636 0.0846354166666657  5.51136363636364 0  5.79545454545455 0  L 9.20454545454546 0  C 9.48863636363637 0  9.76917613636364 0.0846354166666657  10.0461647727273 0.253906250000001  C 10.3231534090909 0.423177083333332  10.5149147727273 0.628255208333332  10.6214488636364 0.869140625000001  L 11.3671875 2.5  L 14.6590909090909 2.5  C 14.7585227272727 2.5  14.8401988636364 2.529296875  14.9041193181818 2.587890625  Z " fill-rule="nonzero" fill="#000000" stroke="none" transform="matrix(1 0 0 1 560 215 )" />
  </g>
</svg>