<?xml version="1.0" encoding="utf-8"?>
<svg version="1.1" xmlns:xlink="http://www.w3.org/1999/xlink" width="83px" height="85px" xmlns="http://www.w3.org/2000/svg">
  <g transform="matrix(1 0 0 1 -506 -1076 )">
    <path d="M 15.0909090909091 61.8181818181818  L 22.6363636363636 61.8181818181818  L 22.6363636363636 69.5454545454545  L 15.0909090909091 69.5454545454545  L 15.0909090909091 61.8181818181818  Z M 15.0909090909091 15.4545454545454  L 22.6363636363636 15.4545454545454  L 22.6363636363636 23.1818181818182  L 15.0909090909091 23.1818181818182  L 15.0909090909091 15.4545454545454  Z M 60.3636363636364 15.4545454545454  L 67.9090909090909 15.4545454545454  L 67.9090909090909 23.1818181818182  L 60.3636363636364 23.1818181818182  L 60.3636363636364 15.4545454545454  Z M 8 54  L 8 77  L 31 77  L 31 54  L 8 54  Z M 8 8  L 8 31  L 31 31  L 31 8  L 8 8  Z M 52 8  L 52 31  L 75 31  L 75 8  L 52 8  Z M 0 46  L 38 46  L 38 85  L 0 85  L 0 46  Z M 60.3636363636364 77.2727272727273  L 67.9090909090909 77.2727272727273  L 67.9090909090909 85  L 60.3636363636364 85  L 60.3636363636364 77.2727272727273  Z M 75.4545454545455 77.2727272727273  L 83 77.2727272727273  L 83 85  L 75.4545454545455 85  L 75.4545454545455 77.2727272727273  Z M 75.4545454545455 46.3636363636364  L 83 46.3636363636364  L 83 69  L 60.3636363636364 69  L 60.3636363636364 61.8181818181818  L 52 61.8181818181818  L 52 85  L 45 85  L 45 46  L 67.9090909090909 46  L 67.9090909090909 54.0909090909091  L 75.4545454545455 54.0909090909091  L 75.4545454545455 46.3636363636364  Z M 0 0  L 38 0  L 38 39  L 0 39  L 0 0  Z M 45 0  L 83 0  L 83 39  L 45 39  L 45 0  Z " fill-rule="nonzero" fill="#000000" stroke="none" transform="matrix(1 0 0 1 506 1076 )" />
  </g>
</svg>