<?xml version="1.0" encoding="utf-8"?>
<svg version="1.1" xmlns:xlink="http://www.w3.org/1999/xlink" width="115px" height="116px" xmlns="http://www.w3.org/2000/svg">
  <g transform="matrix(1 0 0 1 -739 -279 )">
    <path d="M 21 84  L 32 84  L 32 95  L 21 95  L 21 84  Z M 21 21  L 32 21  L 32 32  L 21 32  L 21 21  Z M 83 21  L 94 21  L 94 32  L 83 32  L 83 21  Z M 11 73  L 11 105  L 42 105  L 42 73  L 11 73  Z M 11 11  L 11 43  L 42 43  L 42 11  L 11 11  Z M 73 11  L 73 43  L 104 43  L 104 11  L 73 11  Z M 0 63  L 53 63  L 53 116  L 0 116  L 0 63  Z M 83 105  L 94 105  L 94 116  L 83 116  L 83 105  Z M 104 105  L 115 105  L 115 116  L 104 116  L 104 105  Z M 104 63  L 115 63  L 115 95  L 83 95  L 83 84.3636363636364  L 73 84.3636363636364  L 73 116  L 62 116  L 62 63  L 94 63  L 94 73  L 104 73  L 104 63  Z M 0 0  L 53 0  L 53 53  L 0 53  L 0 0  Z M 62 0  L 115 0  L 115 53  L 62 53  L 62 0  Z " fill-rule="nonzero" fill="#000000" stroke="none" transform="matrix(1 0 0 1 739 279 )" />
  </g>
</svg>