<?xml version="1.0" encoding="utf-8"?>
<svg version="1.1" xmlns:xlink="http://www.w3.org/1999/xlink" width="100px" height="100px" xmlns="http://www.w3.org/2000/svg">
  <defs>
    <mask fill="white" id="clip171">
      <path d="M 297 186  C 285.9 186  277 177.1  277 166  L 277 106  C 277 94.9  285.9 86  297 86  L 357 86  C 368.1 86  377 94.9  377 106  L 377 166  C 377 177.1  368.1 186  357 186  " fill-rule="evenodd" />
    </mask>
  </defs>
  <g transform="matrix(1 0 0 1 -277 -86 )">
    <path d="M 277 86  L 377 86  L 377 186  L 277 186  L 277 86  " fill-rule="nonzero" fill="#cccccc" stroke="none" mask="url(#clip171)" />
    <path d="M 284 93  L 370 93  L 370 179  L 284 179  L 284 93  " fill-rule="nonzero" fill="#ffffff" stroke="none" mask="url(#clip171)" />
    <path d="M 336.5 116  C 332.3 116  329 112.7  329 108.5  C 329 104.3  332.3 101  336.5 101  C 340.7 101  344 104.3  344 108.5  C 344 112.7  340.7 116  336.5 116  " fill-rule="nonzero" fill="#cccccc" stroke="none" mask="url(#clip171)" />
    <path d="M 287 177  L 287 132.45  L 307.25 112.2  L 335.6 128.4  L 351.8 124.35  L 368 128.4  L 368 177  L 287 177  " fill-rule="nonzero" fill="#169bd5" stroke="none" mask="url(#clip171)" />
  </g>
</svg>