<?xml version="1.0" encoding="utf-8"?>
<svg version="1.1" xmlns:xlink="http://www.w3.org/1999/xlink" width="82px" height="75px" xmlns="http://www.w3.org/2000/svg">
  <g transform="matrix(1 0 0 1 -120 -156 )">
    <path d="M 14.9090909090909 54.5454545454545  L 22.3636363636364 54.5454545454545  L 22.3636363636364 61.3636363636364  L 14.9090909090909 61.3636363636364  L 14.9090909090909 54.5454545454545  Z M 14.9090909090909 13.6363636363636  L 22.3636363636364 13.6363636363636  L 22.3636363636364 20.4545454545455  L 14.9090909090909 20.4545454545455  L 14.9090909090909 13.6363636363636  Z M 59.6363636363636 13.6363636363636  L 67.0909090909091 13.6363636363636  L 67.0909090909091 20.4545454545455  L 59.6363636363636 20.4545454545455  L 59.6363636363636 13.6363636363636  Z M 8 47  L 8 68  L 30 68  L 30 47  L 8 47  Z M 8 7  L 8 28  L 30 28  L 30 7  L 8 7  Z M 52 7  L 52 28  L 74 28  L 74 7  L 52 7  Z M 0 41  L 38 41  L 38 75  L 0 75  L 0 41  Z M 59.6363636363636 68.1818181818182  L 67.0909090909091 68.1818181818182  L 67.0909090909091 75  L 59.6363636363636 75  L 59.6363636363636 68.1818181818182  Z M 74.5454545454545 68.1818181818182  L 82 68.1818181818182  L 82 75  L 74.5454545454545 75  L 74.5454545454545 68.1818181818182  Z M 74.5454545454545 40.9090909090909  L 82 40.9090909090909  L 82 61  L 59.6363636363636 61  L 59.6363636363636 54.5454545454545  L 52 54.5454545454545  L 52 75  L 44 75  L 44 41  L 67.0909090909091 41  L 67.0909090909091 47.7272727272727  L 74.5454545454545 47.7272727272727  L 74.5454545454545 40.9090909090909  Z M 0 0  L 38 0  L 38 34  L 0 34  L 0 0  Z M 44 0  L 82 0  L 82 34  L 44 34  L 44 0  Z " fill-rule="nonzero" fill="#000000" stroke="none" transform="matrix(1 0 0 1 120 156 )" />
  </g>
</svg>