<?xml version="1.0" encoding="utf-8"?>
<svg version="1.1" xmlns:xlink="http://www.w3.org/1999/xlink" width="21px" height="21px" xmlns="http://www.w3.org/2000/svg">
  <g transform="matrix(1 0 0 1 -278 -167 )">
    <path d="M 11.015625 20.75390625  C 10.875 20.91796875  10.703125 21  10.5 21  C 10.296875 21  10.125 20.91796875  9.984375 20.75390625  L 2.671875 12.5234375  C 2.59375 12.4505208333333  2.486328125 12.33203125  2.349609375 12.16796875  C 2.212890625 12.00390625  1.99609375 11.7054036458333  1.69921875 11.2724609375  C 1.40234375 10.8395182291667  1.13671875 10.3951822916667  0.90234375 9.939453125  C 0.66796875 9.48372395833333  0.458984375 8.93229166666667  0.275390625 8.28515625  C 0.091796875 7.63802083333333  0 7.00911458333333  0 6.3984375  C 0 4.39322916666667  0.49609375 2.82552083333333  1.48828125 1.6953125  C 2.48046875 0.565104166666666  3.8515625 0  5.6015625 0  C 6.0859375 0  6.580078125 0.097981770833332  7.083984375 0.293945312500001  C 7.587890625 0.489908854166665  8.056640625 0.754231770833332  8.490234375 1.0869140625  C 8.923828125 1.41959635416667  9.296875 1.73177083333333  9.609375 2.0234375  C 9.921875 2.31510416666666  10.21875 2.625  10.5 2.953125  C 10.78125 2.625  11.078125 2.31510416666666  11.390625 2.0234375  C 11.703125 1.73177083333333  12.076171875 1.41959635416667  12.509765625 1.0869140625  C 12.943359375 0.754231770833332  13.412109375 0.489908854166665  13.916015625 0.293945312500001  C 14.419921875 0.097981770833332  14.9140625 0  15.3984375 0  C 17.1484375 0  18.51953125 0.565104166666666  19.51171875 1.6953125  C 20.50390625 2.82552083333333  21 4.39322916666667  21 6.3984375  C 21 8.41276041666667  20.10546875 10.4635416666667  18.31640625 12.55078125  L 11.015625 20.75390625  Z " fill-rule="nonzero" fill="#000000" stroke="none" transform="matrix(1 0 0 1 278 167 )" />
  </g>
</svg>