<?xml version="1.0" encoding="utf-8"?>
<svg version="1.1" xmlns:xlink="http://www.w3.org/1999/xlink" width="38px" height="17px" xmlns="http://www.w3.org/2000/svg">
  <defs>
    <mask fill="white" id="clip241">
      <path d="M 9.25641025641026 17  C 4.07282051282052 17  0 13.26  0 8.5  C 0 3.74000000000001  4.07282051282052 0  9.25641025641026 0  L 19.8119658119646 0  L 28.7435897435897 0  C 33.9271794871795 0  38 3.74000000000001  38 8.5  C 38 13.26  33.9271794871795 17  28.7435897435897 17  L 9.25641025641026 17  Z " fill-rule="evenodd" />
    </mask>
  </defs>
  <g transform="matrix(1 0 0 1 -321 -131 )">
    <path d="M 9.25641025641026 17  C 4.07282051282052 17  0 13.26  0 8.5  C 0 3.74000000000001  4.07282051282052 0  9.25641025641026 0  L 19.8119658119646 0  L 28.7435897435897 0  C 33.9271794871795 0  38 3.74000000000001  38 8.5  C 38 13.26  33.9271794871795 17  28.7435897435897 17  L 9.25641025641026 17  Z " fill-rule="nonzero" fill="#ffffff" stroke="none" transform="matrix(1 0 0 1 321 131 )" />
    <path d="M 9.25641025641026 17  C 4.07282051282052 17  0 13.26  0 8.5  C 0 3.74000000000001  4.07282051282052 0  9.25641025641026 0  L 19.8119658119646 0  L 28.7435897435897 0  C 33.9271794871795 0  38 3.74000000000001  38 8.5  C 38 13.26  33.9271794871795 17  28.7435897435897 17  L 9.25641025641026 17  Z " stroke-width="2" stroke="#797979" fill="none" transform="matrix(1 0 0 1 321 131 )" mask="url(#clip241)" />
  </g>
</svg>