<?xml version="1.0" encoding="utf-8"?>
<svg version="1.1" xmlns:xlink="http://www.w3.org/1999/xlink" width="54px" height="54px" xmlns="http://www.w3.org/2000/svg">
  <g transform="matrix(1 0 0 1 -108 -370 )">
    <path d="M 13.447265625 3.62109375  C 17.583984375 1.20703125  22.1015625 0  27 0  C 31.8984375 0  36.416015625 1.20703125  40.552734375 3.62109375  C 44.689453125 6.03515624999999  47.96484375 9.310546875  50.37890625 13.447265625  C 52.79296875 17.583984375  54 22.1015625  54 27  C 54 31.8984375  52.79296875 36.416015625  50.37890625 40.552734375  C 47.96484375 44.689453125  44.689453125 47.96484375  40.552734375 50.37890625  C 36.416015625 52.79296875  31.8984375 54  27 54  C 22.1015625 54  17.583984375 52.79296875  13.447265625 50.37890625  C 9.310546875 47.96484375  6.03515625 44.689453125  3.62109375 40.552734375  C 1.20703125 36.416015625  0 31.8984375  0 27  C 0 22.1015625  1.20703125 17.583984375  3.62109375 13.447265625  C 6.03515625 9.310546875  9.310546875 6.03515624999999  13.447265625 3.62109375  Z M 31.18359375 44.666015625  C 31.39453125 44.443359375  31.5 44.16796875  31.5 43.83984375  L 31.5 37.16015625  C 31.5 36.83203125  31.39453125 36.556640625  31.18359375 36.333984375  C 30.97265625 36.111328125  30.71484375 36  30.41015625 36  L 23.66015625 36  C 23.35546875 36  23.0859375 36.1171875  22.8515625 36.3515625  C 22.6171875 36.5859375  22.5 36.85546875  22.5 37.16015625  L 22.5 43.83984375  C 22.5 44.14453125  22.6171875 44.4140625  22.8515625 44.6484375  C 23.0859375 44.8828125  23.35546875 45  23.66015625 45  L 30.41015625 45  C 30.71484375 45  30.97265625 44.888671875  31.18359375 44.666015625  Z M 31.060546875 32.361328125  C 31.283203125 32.185546875  31.40625 31.98046875  31.4296875 31.74609375  L 32.0625 9.9140625  C 32.0625 9.6328125  31.9453125 9.421875  31.7109375 9.28125  C 31.4765625 9.09374999999999  31.1953125 9  30.8671875 9  L 23.1328125 9  C 22.8046875 9  22.5234375 9.09374999999999  22.2890625 9.28125  C 22.0546875 9.421875  21.9375 9.6328125  21.9375 9.9140625  L 22.53515625 31.74609375  C 22.53515625 31.98046875  22.65234375 32.185546875  22.88671875 32.361328125  C 23.12109375 32.537109375  23.40234375 32.625  23.73046875 32.625  L 30.234375 32.625  C 30.5625 32.625  30.837890625 32.537109375  31.060546875 32.361328125  Z " fill-rule="nonzero" fill="#ffffff" stroke="none" transform="matrix(1 0 0 1 108 370 )" />
  </g>
</svg>