<?xml version="1.0" encoding="utf-8"?>
<svg version="1.1" xmlns:xlink="http://www.w3.org/1999/xlink" width="50px" height="50px" xmlns="http://www.w3.org/2000/svg">
  <g transform="matrix(1 0 0 1 -293 -379 )">
    <path d="M 48.876953125 29.4759114583333  C 49.0831163194445 29.6820746527778  49.1861979166667 29.9262152777778  49.1861979166667 30.2083333333333  C 49.1861979166667 30.3168402777778  49.1753472222222 30.3927951388889  49.1536458333333 30.4361979166667  C 47.7647569444445 36.2521701388889  44.8567708333333 40.966796875  40.4296875 44.580078125  C 36.0026041666667 48.193359375  30.8159722222222 50  24.8697916666667 50  C 21.7013888888889 50  18.6360677083333 49.4032118055556  15.673828125 48.2096354166667  C 12.7115885416667 47.0160590277778  10.0694444444444 45.3125  7.74739583333333 43.0989583333333  L 3.54817708333333 47.2981770833333  C 3.13585069444444 47.7105034722222  2.64756944444444 47.9166666666667  2.08333333333333 47.9166666666667  C 1.51909722222222 47.9166666666667  1.03081597222222 47.7105034722222  0.618489583333333 47.2981770833333  C 0.206163194444444 46.8858506944444  0 46.3975694444444  0 45.8333333333333  L 0 31.25  C 0 30.6857638888889  0.206163194444444 30.1974826388889  0.618489583333333 29.78515625  C 1.03081597222222 29.3728298611111  1.51909722222222 29.1666666666667  2.08333333333333 29  L 16.6666666666667 29  C 17.2309027777778 29.1666666666667  17.7191840277778 29.3728298611111  18.1315104166667 29.78515625  C 18.5438368055556 30.1974826388889  18.75 30.6857638888889  18.75 31.25  C 18.75 31.8142361111111  18.5438368055556 32.3025173611111  18.1315104166667 32.71484375  L 13.671875 37.1744791666667  C 15.2126736111111 38.6067708333333  16.9596354166667 39.7135416666667  18.9127604166667 40.4947916666667  C 20.8658854166667 41.2760416666667  22.8949652777778 41.6666666666667  25 41.6666666666667  C 27.9079861111111 41.6666666666667  30.6206597222222 40.9613715277778  33.1380208333333 39.55078125  C 35.6553819444445 38.1401909722222  37.6736111111111 36.1979166666667  39.1927083333333 33.7239583333333  C 39.4314236111111 33.3550347222222  40.0065104166667 32.0855034722222  40.91796875 29.9153645833333  C 41.0915798611111 29.4162326388889  41.4171006944445 29.1666666666667  41.89453125 29.1666666666667  L 48.14453125 29.1666666666667  C 48.4266493055556 29.1666666666667  48.6707899305556 29.2697482638889  48.876953125 29.4759114583333  Z M 49.3815104166667 2.70182291666667  C 49.7938368055556 3.11414930555555  50 3.60243055555555  50 4.16666666666667  L 50 18.75  C 50 19.3142361111111  49.7938368055556 19.8025173611111  49.3815104166667 20.21484375  C 48.9691840277778 20.6271701388889  48.4809027777778 20.8333333333333  47.9166666666667 21  L 33.3333333333333 21  C 32.7690972222222 20.8333333333333  32.2808159722222 20.6271701388889  31.8684895833333 20.21484375  C 31.4561631944444 19.8025173611111  31.25 19.3142361111111  31.25 18.75  C 31.25 18.1857638888889  31.4561631944444 17.6974826388889  31.8684895833333 17.28515625  L 36.3606770833333 12.79296875  C 33.1488715277778 9.81987847222222  29.3619791666667 8.33333333333333  25 8.33333333333333  C 22.0920138888889 8.33333333333333  19.3793402777778 9.03862847222222  16.8619791666667 10.44921875  C 14.3446180555556 11.8598090277778  12.3263888888889 13.8020833333333  10.8072916666667 16.2760416666667  C 10.5685763888889 16.6449652777778  9.99348958333333 17.9144965277778  9.08203125 20.0846354166667  C 8.90842013888889 20.5837673611111  8.58289930555556 20.8333333333333  8.10546875 20.8333333333333  L 1.62760416666667 20.8333333333333  C 1.34548611111111 20.8333333333333  1.10134548611111 20.7302517361111  0.895182291666667 20.5240885416667  C 0.689019097222222 20.3179253472222  0.5859375 20.0737847222222  0.5859375 19.7916666666667  L 0.5859375 19.5638020833333  C 1.99652777777778 13.7478298611111  4.92621527777778 9.033203125  9.375 5.419921875  C 13.8237847222222 1.806640625  19.0321180555556 0  25 0  C 28.1684027777778 0  31.25 0.602213541666669  34.2447916666667 1.806640625  C 37.2395833333333 3.01106770833333  39.8980034722222 4.70920138888888  42.2200520833333 6.90104166666667  L 46.4518229166667 2.70182291666667  C 46.8641493055556 2.28949652777777  47.3524305555556 2.08333333333333  47.9166666666667 2.08333333333333  C 48.4809027777778 2.08333333333333  48.9691840277778 2.28949652777777  49.3815104166667 2.70182291666667  Z " fill-rule="nonzero" fill="#ffffff" stroke="none" transform="matrix(1 0 0 1 293 379 )" />
  </g>
</svg>