<?xml version="1.0" encoding="utf-8"?>
<svg version="1.1" xmlns:xlink="http://www.w3.org/1999/xlink" width="28px" height="65px" xmlns="http://www.w3.org/2000/svg">
  <g transform="matrix(1 0 0 1 -604 -218 )">
    <path d="M 604 218  L 632 218  L 632 283  L 604 283  L 604 218  " fill-rule="nonzero" fill="#cccccc" stroke="none" />
    <path d="M 606 220  L 630 220  L 630 281  L 606 281  L 606 220  " fill-rule="nonzero" fill="#ffffff" stroke="none" />
    <path d="M 620.66 231.95  C 619.484 231.95  618.56 231.026  618.56 229.85  C 618.56 228.674  619.484 227.75  620.66 227.75  C 621.836 227.75  622.76 228.674  622.76 229.85  C 622.76 231.026  621.836 231.95  620.66 231.95  " fill-rule="nonzero" fill="#cccccc" stroke="none" />
    <path d="M 607 281  L 607 248  L 612.75 233  L 620.8 245  L 625.4 242  L 630 245  L 630 281  L 607 281  " fill-rule="nonzero" fill="#169bd5" stroke="none" />
  </g>
</svg>