<?xml version="1.0" encoding="utf-8"?>
<svg version="1.1" xmlns:xlink="http://www.w3.org/1999/xlink" width="100px" height="100px" xmlns="http://www.w3.org/2000/svg">
  <g transform="matrix(1 0 0 1 -289 -201 )">
    <path d="M 289 201  L 389 201  L 389 301  L 289 301  L 289 201  " fill-rule="nonzero" fill="#cccccc" stroke="none" />
    <path d="M 296 208  L 382 208  L 382 294  L 296 294  L 296 208  " fill-rule="nonzero" fill="#ffffff" stroke="none" />
    <path d="M 348.5 231  C 344.3 231  341 227.7  341 223.5  C 341 219.3  344.3 216  348.5 216  C 352.7 216  356 219.3  356 223.5  C 356 227.7  352.7 231  348.5 231  " fill-rule="nonzero" fill="#cccccc" stroke="none" />
    <path d="M 299 292  L 299 247.45  L 319.25 227.2  L 347.6 243.4  L 363.8 239.35  L 380 243.4  L 380 292  L 299 292  " fill-rule="nonzero" fill="#169bd5" stroke="none" />
  </g>
</svg>