<?xml version="1.0" encoding="utf-8"?>
<svg version="1.1" xmlns:xlink="http://www.w3.org/1999/xlink" width="43px" height="17px" xmlns="http://www.w3.org/2000/svg">
  <defs>
    <mask fill="white" id="clip207">
      <path d="M 10.474358974359 17  C 4.60871794871796 17  0 13.26  0 8.5  C 0 3.74000000000001  4.60871794871796 0  10.474358974359 0  L 22.4188034188021 0  L 32.525641025641 0  C 38.391282051282 0  43 3.74000000000001  43 8.5  C 43 13.26  38.391282051282 17  32.525641025641 17  L 10.474358974359 17  Z " fill-rule="evenodd" />
    </mask>
  </defs>
  <g transform="matrix(1 0 0 1 -736 -218 )">
    <path d="M 10.474358974359 17  C 4.60871794871796 17  0 13.26  0 8.5  C 0 3.74000000000001  4.60871794871796 0  10.474358974359 0  L 22.4188034188021 0  L 32.525641025641 0  C 38.391282051282 0  43 3.74000000000001  43 8.5  C 43 13.26  38.391282051282 17  32.525641025641 17  L 10.474358974359 17  Z " fill-rule="nonzero" fill="#ffffff" stroke="none" transform="matrix(1 0 0 1 736 218 )" />
    <path d="M 10.474358974359 17  C 4.60871794871796 17  0 13.26  0 8.5  C 0 3.74000000000001  4.60871794871796 0  10.474358974359 0  L 22.4188034188021 0  L 32.525641025641 0  C 38.391282051282 0  43 3.74000000000001  43 8.5  C 43 13.26  38.391282051282 17  32.525641025641 17  L 10.474358974359 17  Z " stroke-width="2" stroke="#797979" fill="none" transform="matrix(1 0 0 1 736 218 )" mask="url(#clip207)" />
  </g>
</svg>