<?xml version="1.0" encoding="utf-8"?>
<svg version="1.1" xmlns:xlink="http://www.w3.org/1999/xlink" width="95px" height="97px" xmlns="http://www.w3.org/2000/svg">
  <g transform="matrix(1 0 0 1 -491 -214 )">
    <path d="M 17.2727272727273 70.5454545454545  L 25.9090909090909 70.5454545454545  L 25.9090909090909 79.3636363636364  L 17.2727272727273 79.3636363636364  L 17.2727272727273 70.5454545454545  Z M 17.2727272727273 17.6363636363636  L 25.9090909090909 17.6363636363636  L 25.9090909090909 26.4545454545455  L 17.2727272727273 26.4545454545455  L 17.2727272727273 17.6363636363636  Z M 69.0909090909091 17.6363636363636  L 77.7272727272727 17.6363636363636  L 77.7272727272727 26.4545454545455  L 69.0909090909091 26.4545454545455  L 69.0909090909091 17.6363636363636  Z M 9 61  L 9 88  L 35 88  L 35 61  L 9 61  Z M 9 9  L 9 36  L 35 36  L 35 9  L 9 9  Z M 60 9  L 60 36  L 86 36  L 86 9  L 60 9  Z M 0 53  L 44 53  L 44 97  L 0 97  L 0 53  Z M 69.0909090909091 88.1818181818182  L 77.7272727272727 88.1818181818182  L 77.7272727272727 97  L 69.0909090909091 97  L 69.0909090909091 88.1818181818182  Z M 86.3636363636364 88.1818181818182  L 95 88.1818181818182  L 95 97  L 86.3636363636364 97  L 86.3636363636364 88.1818181818182  Z M 86.3636363636364 52.9090909090909  L 95 52.9090909090909  L 95 79  L 69.0909090909091 79  L 69.0909090909091 70.5454545454545  L 60 70.5454545454545  L 60 97  L 51 97  L 51 53  L 77.7272727272727 53  L 77.7272727272727 61.7272727272727  L 86.3636363636364 61.7272727272727  L 86.3636363636364 52.9090909090909  Z M 0 0  L 44 0  L 44 44  L 0 44  L 0 0  Z M 51 0  L 95 0  L 95 44  L 51 44  L 51 0  Z " fill-rule="nonzero" fill="#000000" stroke="none" transform="matrix(1 0 0 1 491 214 )" />
  </g>
</svg>