<?xml version="1.0" standalone="no"?><!DOCTYPE svg PUBLIC "-//W3C//DTD SVG 1.1//EN" "http://www.w3.org/Graphics/SVG/1.1/DTD/svg11.dtd"><svg t="1668653841046" class="icon" viewBox="0 0 1024 1024" version="1.1" xmlns="http://www.w3.org/2000/svg" p-id="2835" xmlns:xlink="http://www.w3.org/1999/xlink" width="128" height="128"><path d="M850.6 63.9H173.7c-60.1 0-109.4 49.2-109.4 109.3v676.9c0 60.1 49.2 109.4 109.4 109.4h676.9c60.2 0 109.4-49.2 109.4-109.4V173.3c-0.1-60.1-49.3-109.4-109.4-109.4z m-49.4 278L469.6 764.5c-12.5 16-31.6 25.4-51.8 25.7h-1c-19.9 0-38.8-8.8-51.6-24.2L224.3 596.9c-23.8-28.5-19.9-70.8 8.6-94.6 28.5-23.8 70.8-19.9 94.6 8.6l87.7 105.3L695.5 259c22.9-29.3 65.2-34.2 94.3-11.4 29.2 22.9 34.3 65.2 11.4 94.3z" p-id="2836" fill="#515151"></path></svg>