<?xml version="1.0" encoding="utf-8"?>
<svg version="1.1" xmlns:xlink="http://www.w3.org/1999/xlink" width="98px" height="98px" xmlns="http://www.w3.org/2000/svg">
  <g transform="matrix(1 0 0 1 -739 -150 )">
    <path d="M 17.8181818181818 71.2727272727273  L 26.7272727272727 71.2727272727273  L 26.7272727272727 80.1818181818182  L 17.8181818181818 80.1818181818182  L 17.8181818181818 71.2727272727273  Z M 17.8181818181818 17.8181818181818  L 26.7272727272727 17.8181818181818  L 26.7272727272727 26.7272727272727  L 17.8181818181818 26.7272727272727  L 17.8181818181818 17.8181818181818  Z M 71.2727272727273 17.8181818181818  L 80.1818181818182 17.8181818181818  L 80.1818181818182 26.7272727272727  L 71.2727272727273 26.7272727272727  L 71.2727272727273 17.8181818181818  Z M 9 62  L 9 89  L 36 89  L 36 62  L 9 62  Z M 9 9  L 9 36  L 36 36  L 36 9  L 9 9  Z M 62 9  L 62 36  L 89 36  L 89 9  L 62 9  Z M 0 53  L 45 53  L 45 98  L 0 98  L 0 53  Z M 71.2727272727273 89.0909090909091  L 80.1818181818182 89.0909090909091  L 80.1818181818182 98  L 71.2727272727273 98  L 71.2727272727273 89.0909090909091  Z M 89.0909090909091 89.0909090909091  L 98 89.0909090909091  L 98 98  L 89.0909090909091 98  L 89.0909090909091 89.0909090909091  Z M 89.0909090909091 53.4545454545455  L 98 53.4545454545455  L 98 80  L 71.2727272727273 80  L 71.2727272727273 71.2727272727273  L 62 71.2727272727273  L 62 98  L 53 98  L 53 53  L 80.1818181818182 53  L 80.1818181818182 62.3636363636364  L 89.0909090909091 62.3636363636364  L 89.0909090909091 53.4545454545455  Z M 0 0  L 45 0  L 45 45  L 0 45  L 0 0  Z M 53 0  L 98 0  L 98 45  L 53 45  L 53 0  Z " fill-rule="nonzero" fill="#000000" stroke="none" transform="matrix(1 0 0 1 739 150 )" />
  </g>
</svg>