<?xml version="1.0" encoding="utf-8"?>
<svg version="1.1" xmlns:xlink="http://www.w3.org/1999/xlink" width="49px" height="42px" xmlns="http://www.w3.org/2000/svg">
  <g transform="matrix(1 0 0 1 -764 -182 )">
    <path d="M 7.11921867256637 26.9088015929204  C 4.55550007964602 21.3727295575221  5.81708746902655 15.2726198230089  10.0095946814159 10.881430619469  L 9.96904394654867 13.3357113982301  L 15.7340513536283 13.4399866938053  L 15.9525784748673 2.5512413840708  L 3.25134918283186 2.36586527787611  L 3.13194966867257 7.30730019823009  L 5.93673958902655 7.34012758778761  C 0.131419058053096 13.1179300656637  -1.67546244637168 21.3150143134513  1.75772775716814 28.7335189152212  C 5.51544149168142 36.8554640479646  14.5875668722124 41.9649238709735  24.4368877571681 41.9649238709735  C 26.099472500531 41.9649238709735  27.7846072173451 41.8181653152212  29.4697419341593 41.5188644692035  L 28.2914914031858 36.679757159469  C 19.3816566244248 38.2709267877876  10.4758589253097 34.1636843453097  7.11931556247787 26.9087061860177  Z M 47.2397161946903 13.2641315044248  C 42.8466814690266 3.77534654867257  31.1929013274336 -1.60056053097345  19.5320851327434 0.481089557522123  L 20.7080864336283 5.32019686725664  C 29.6179212123894 3.72902723893805  38.5237189115044 7.83626968141593  41.8802622743363 15.0872931504425  C 44.4462300973451 20.6273198761062  43.1823934778761 26.7333616460177  38.9853878053097 31.1240565132743  L 39.021433159292 28.6485192743363  L 33.2541765221239 28.5558312212389  L 33.0581820725664 39.4425991858407  L 45.7594113646018 39.6105944283186  L 45.8675474265487 34.6691595079646  L 43.0830582495575 34.6382634902655  C 48.8728071876106 28.8644157026549  50.6727679840708 20.677218180531  47.2395201079646 13.2641512778761  Z " fill-rule="nonzero" fill="#d7d7d7" stroke="none" transform="matrix(1 0 0 1 764 182 )" />
  </g>
</svg>